<?xml version="1.0" encoding="UTF-8"?>
<mxfile host="app.diagrams.net">
  <diagram id="components" name="Component Diagram">
    <mxGraphModel dx="1304" dy="767" grid="1" gridSize="10" guides="1" tooltips="1" connect="1" arrows="1" fold="1" page="1" pageScale="1" pageWidth="827" pageHeight="1169" math="0" shadow="0">
      <root>
        <mxCell id="0"/>
        <mxCell id="1" parent="0"/>
        
        <!-- Controller -->
        <mxCell id="controller" value="RecommendationController" style="shape=component;whiteSpace=wrap;html=1;" vertex="1" parent="1">
          <mxGeometry x="60" y="120" width="180" height="70" as="geometry"/>
        </mxCell>

        <!-- Service -->
        <mxCell id="service" value="RecommendationService" style="shape=component;whiteSpace=wrap;html=1;" vertex="1" parent="1">
          <mxGeometry x="300" y="100" width="200" height="70" as="geometry"/>
        </mxCell>

        <!-- Rules -->
        <mxCell id="rules" value="RuleSet (Invest500, Credit, Saving)" style="shape=component;whiteSpace=wrap;html=1;" vertex="1" parent="1">
          <mxGeometry x="600" y="70" width="250" height="70" as="geometry"/>
        </mxCell>

        <!-- Repository -->
        <mxCell id="repository" value="RecommendationRepository" style="shape=component;whiteSpace=wrap;html=1;" vertex="1" parent="1">
          <mxGeometry x="300" y="220" width="200" height="70" as="geometry"/>
        </mxCell>

        <!-- Database -->
        <mxCell id="db_component" value="Database (TRANSACTIONS, PRODUCTS)" style="shape=cylinder;whiteSpace=wrap;html=1;" vertex="1" parent="1">
          <mxGeometry x="600" y="220" width="250" height="100" as="geometry"/>
        </mxCell>

        <!-- Connections -->
        <mxCell id="edge1" edge="1" parent="1" source="controller" target="service">
          <mxGeometry relative="1" as="geometry"/>
        </mxCell>
        <mxCell id="edge2" edge="1" parent="1" source="service" target="rules">
          <mxGeometry relative="1" as="geometry"/>
        </mxCell>
        <mxCell id="edge3" edge="1" parent="1" source="service" target="repository">
          <mxGeometry relative="1" as="geometry"/>
        </mxCell>
        <mxCell id="edge4" edge="1" parent="1" source="repository" target="db_component">
          <mxGeometry relative="1" as="geometry"/>
        </mxCell>
      </root>
    </mxGraphModel>
  </diagram>
</mxfile>
